<?xml version="1.0" encoding="UTF-8" standalone="no"?>
<!-- Created with Inkscape (http://www.inkscape.org/) -->

<svg
   width="14mm"
   height="14mm"
   viewBox="0 0 14 14"
   version="1.1"
   id="svg5"
   inkscape:version="1.4.1 (93de688d07, 2025-03-30)"
   sodipodi:docname="favicon.svg"
   xml:space="preserve"
   inkscape:export-filename="favicon.png"
   inkscape:export-xdpi="87.085709"
   inkscape:export-ydpi="87.085709"
   xmlns:inkscape="http://www.inkscape.org/namespaces/inkscape"
   xmlns:sodipodi="http://sodipodi.sourceforge.net/DTD/sodipodi-0.dtd"
   xmlns="http://www.w3.org/2000/svg"
   xmlns:svg="http://www.w3.org/2000/svg"><sodipodi:namedview
     id="namedview7"
     pagecolor="#ffffff"
     bordercolor="#000000"
     borderopacity="1"
     inkscape:showpageshadow="0"
     inkscape:pageopacity="1"
     inkscape:pagecheckerboard="0"
     inkscape:deskcolor="#ffffff"
     inkscape:document-units="mm"
     showgrid="false"
     inkscape:zoom="1.1615767"
     inkscape:cx="-49.501682"
     inkscape:cy="17.648426"
     inkscape:window-width="1920"
     inkscape:window-height="1017"
     inkscape:window-x="0"
     inkscape:window-y="1026"
     inkscape:window-maximized="1"
     inkscape:current-layer="layer1"><inkscape:grid
       type="xygrid"
       id="grid132"
       originx="-79.066475"
       originy="-233.9545"
       spacingy="1"
       spacingx="1"
       units="mm"
       visible="false" /></sodipodi:namedview><defs
     id="defs2" /><g
     inkscape:label="Ebene 1"
     inkscape:groupmode="layer"
     id="layer1"
     transform="translate(-79.066475,-45.096525)"><rect
       style="font-variation-settings:normal;opacity:1;vector-effect:none;fill:#c6bea9;fill-opacity:1;fill-rule:evenodd;stroke:none;stroke-width:1.01607;stroke-linecap:butt;stroke-linejoin:miter;stroke-miterlimit:4;stroke-dasharray:none;stroke-dashoffset:0;stroke-opacity:1;-inkscape-stroke:none;stop-color:#000000;stop-opacity:1"
       id="rect1"
       width="14"
       height="14"
       x="79.066475"
       y="45.096527"
       ry="1.8226987" /><path
       style="display:inline;fill:#000000;stroke-width:0.406082"
       d="m 82.758118,64.138217 c 0,-0.02447 0.0211,-0.04432 0.0469,-0.04432 0.0258,0 0.0347,0.02002 0.0195,0.04432 -0.0137,0.02447 -0.0363,0.04432 -0.0469,0.04432 -0.0103,0 -0.0195,-0.02002 -0.0195,-0.04432 z"
       id="path2" /><path
       style="display:inline;fill:#534a43;stroke-width:0.283402;fill-opacity:1"
       d="m 83.420313,52.064698 c -0.05039,-0.01996 -0.09398,-0.06581 -0.105449,-0.110944 -0.03033,-0.120876 0.04478,-0.349569 0.146434,-0.445833 0.05028,-0.04765 0.09159,-0.09781 0.09159,-0.1113 0,-0.0135 0.07679,-0.09996 0.170557,-0.191873 0.09375,-0.09195 0.177805,-0.188075 0.18669,-0.213607 0.0084,-0.02556 0.07965,-0.09518 0.157289,-0.154758 0.33618,-0.257971 0.5554,-0.444553 0.584515,-0.497469 0.02281,-0.04132 0.04383,-0.04873 0.07738,-0.02699 0.02532,0.01648 0.09828,0.02161 0.162125,0.01075 0.07738,-0.01254 0.116077,-0.006 0.116077,0.01696 0,0.01958 0.01254,0.02782 0.02771,0.01827 0.01528,-0.0096 0.0357,0.0036 0.0455,0.02914 0.04156,0.108194 0.401779,-0.0084 0.492813,-0.159511 0.01338,-0.02221 0.08694,-0.08347 0.16345,-0.136127 0.139436,-0.09589 0.262033,-0.256145 0.306756,-0.400882 0.01313,-0.04252 0.112613,-0.186547 0.221155,-0.319999 0.114166,-0.140391 0.19727,-0.272447 0.19727,-0.313397 0,-0.06616 -0.01325,-0.07106 -0.208914,-0.07571 -0.310564,-0.0072 -0.323964,-0.0072 -0.436709,0.01552 -0.0572,0.01075 -0.112971,0.0072 -0.123767,-0.0072 -0.01075,-0.0154 -0.0793,-0.05434 -0.151831,-0.08622 -0.160011,-0.07058 -0.155151,-0.125272 0.02771,-0.311436 0.100552,-0.102344 0.126693,-0.115719 0.151175,-0.07738 0.01839,0.0289 0.02986,0.03224 0.03009,0.0084 5.73e-4,-0.03559 0.04825,-0.03965 0.503393,-0.04311 0.06389,-5.85e-4 0.165911,0.0024 0.226839,0.006 0.126693,0.0084 0.191957,-0.05434 0.358226,-0.343537 0.05374,-0.09363 0.141286,-0.225931 0.194345,-0.294025 0.201999,-0.259143 0.255906,-0.368304 0.270845,-0.548414 0.01075,-0.133357 0.0036,-0.180409 -0.02902,-0.193067 -0.07559,-0.02914 -0.174771,-0.01792 -0.266188,0.02974 -0.04848,0.02532 -0.100074,0.03869 -0.114524,0.02998 -0.03499,-0.02161 -0.306922,0.04502 -0.387794,0.09506 -0.03547,0.02198 -0.132951,0.04932 -0.216628,0.06079 -0.205141,0.02818 -0.360686,0.08013 -0.407523,0.135853 -0.02138,0.02532 -0.03869,0.03152 -0.03869,0.01373 0,-0.01875 -0.07106,-0.03129 -0.170209,-0.02986 -0.09363,0.0012 -0.170234,0.01313 -0.170234,0.02639 0,0.01313 -0.02639,0.02388 -0.05852,0.02388 -0.03224,0 -0.06724,0.02233 -0.07762,0.04968 -0.01075,0.0283 -0.03893,0.04203 -0.0652,0.03201 -0.02544,-0.0096 -0.04621,-0.0072 -0.04621,0.0047 -7.2e-5,0.01254 -0.05075,0.02484 -0.112614,0.02806 -0.06186,0.0036 -0.127254,0.02054 -0.145322,0.03881 -0.04168,0.04168 -0.175202,0.04299 -0.175202,0.0024 0,-0.01708 -0.02317,-0.03093 -0.05159,-0.03093 -0.0283,0 -0.04252,0.0084 -0.0314,0.02018 0.03296,0.03296 -0.162889,0.160142 -0.222516,0.144558 -0.03009,-0.0072 -0.07308,0.0072 -0.09542,0.03463 -0.0289,0.03475 -0.05183,0.03965 -0.07894,0.01708 -0.05171,-0.04287 -0.147018,-0.0036 -0.12575,0.05219 0.01075,0.02962 0.0036,0.03595 -0.0215,0.01946 -0.04168,-0.02675 -0.07285,-0.03069 -0.339369,-0.04311 -0.133512,-0.006 -0.191921,0.0047 -0.236823,0.04562 -0.03272,0.02974 -0.07834,0.05135 -0.101268,0.04813 -0.118466,-0.01624 -0.211219,0.0084 -0.286383,0.07894 -0.04586,0.04252 -0.101985,0.07738 -0.124507,0.07738 -0.02257,0 -0.05899,0.02161 -0.08073,0.04789 -0.02185,0.02639 -0.05625,0.04156 -0.07655,0.03355 -0.03726,-0.01433 -0.145502,0.0873 -0.120137,0.112613 0.0072,0.0072 -0.0072,0.03141 -0.03344,0.05278 -0.03224,0.02687 -0.04717,0.02818 -0.04717,0.0047 0,-0.01911 -0.01481,-0.03475 -0.03296,-0.03475 -0.01899,0 -0.02472,0.02651 -0.01325,0.0621 0.01481,0.04658 0.0012,0.06878 -0.05207,0.08921 -0.03953,0.01493 -0.08228,0.02089 -0.09506,0.01338 -0.01278,-0.0072 -0.02317,0.0011 -0.02317,0.01911 0,0.01803 -0.01469,0.03272 -0.03272,0.03272 -0.01803,0 -0.02293,-0.01743 -0.01075,-0.03869 0.01743,-0.03093 0.0135,-0.03093 -0.01982,0 -0.05446,0.05051 -0.122143,0.04956 -0.122143,-0.0012 0,-0.02233 -0.01851,-0.0658 -0.04108,-0.09685 -0.03404,-0.04633 -0.05278,-0.05004 -0.107598,-0.02066 -0.06114,0.03272 -0.06437,0.02998 -0.03965,-0.03475 0.01946,-0.051 0.04896,-0.06867 0.107598,-0.06449 0.04932,0.0036 0.08073,-0.0096 0.08073,-0.03511 0,-0.02245 0.02937,-0.04848 0.0652,-0.05792 0.03582,-0.0084 0.05923,-0.03511 0.05183,-0.05708 -0.01672,-0.05004 0.07082,-0.146923 0.149228,-0.165206 0.254246,-0.05935 0.340276,-0.08527 0.421542,-0.127326 0.05123,-0.02651 0.118704,-0.04156 0.149957,-0.03332 0.03177,0.0084 0.101746,-0.01923 0.158864,-0.06257 0.164036,-0.124269 0.304713,-0.171213 0.526633,-0.175835 0.114404,-0.0024 0.223973,-0.02042 0.243641,-0.04 0.0197,-0.0197 0.05493,-0.0283 0.07834,-0.01947 0.02341,0.0084 0.04263,0.0036 0.04263,-0.0129 0,-0.016 0.05923,-0.0314 0.13159,-0.03427 0.07237,-0.0024 0.178808,-0.01851 0.236524,-0.03511 0.05768,-0.0166 0.116913,-0.02269 0.13147,-0.01362 0.01457,0.0084 0.02663,3.6e-5 0.02663,-0.01995 0,-0.02221 0.03033,-0.03057 0.07738,-0.02161 0.04968,0.0096 0.07738,8.38e-4 0.07738,-0.02448 0,-0.02365 0.06222,-0.04777 0.156943,-0.06079 0.08921,-0.01254 0.164107,-0.04025 0.173517,-0.06485 0.0084,-0.02388 0.04215,-0.04323 0.07333,-0.04323 0.03129,0 0.06497,-0.01325 0.075,-0.02962 0.0096,-0.01636 0.03678,-0.02257 0.05923,-0.01397 0.02245,0.0084 0.107718,-0.01983 0.189318,-0.06317 0.08168,-0.04335 0.16726,-0.07894 0.19026,-0.07894 0.02293,0 0.0418,-0.0135 0.0418,-0.02998 0,-0.0166 0.02054,-0.0221 0.04562,-0.01254 0.02508,0.0096 0.06783,-0.0047 0.09506,-0.03189 0.02722,-0.02723 0.09363,-0.051 0.147807,-0.05302 0.09804,-0.0036 0.14635,-0.01075 0.175739,-0.02591 0.0084,-0.0047 0.0621,-0.0096 0.119182,-0.01338 0.06628,-0.0036 0.116315,-0.02723 0.139268,-0.06628 0.04287,-0.07321 0.07524,-0.08312 0.309967,-0.09446 0.134337,-0.006 0.199683,-0.02579 0.251656,-0.07476 0.04598,-0.04323 0.127266,-0.07189 0.236356,-0.08324 0.09136,-0.0096 0.194011,-0.03296 0.228046,-0.05207 0.03415,-0.01911 0.07989,-0.03499 0.101626,-0.03523 0.02197,-2.27e-4 0.05673,-0.02902 0.07739,-0.06401 0.006,-0.165146 0.08622,-0.275622 0.252395,-0.361474 -0.01075,-0.03822 0.299877,-0.05971 0.580897,-0.08515 0,0 0.8588,0.0084 1.268161,0.01577 0.05326,8.38e-4 0.07225,0.142565 0.07225,0.142565 0.106164,0.209594 -0.482614,0.371409 -0.53547,0.36342 -0.01254,-0.0024 -0.02937,0 -0.03785,0.0036 -0.0084,0.0036 -0.164144,0.0096 -0.345842,0.01254 -0.318208,0.0047 -0.334735,0.0072 -0.448758,0.09852 -0.06509,0.05171 -0.19499,0.118465 -0.288603,0.148535 -0.135817,0.04347 -0.196805,0.0867 -0.301752,0.213237 -0.07273,0.08777 -0.13153,0.191372 -0.13153,0.23176 0,0.04013 -0.01254,0.06532 -0.02759,0.05601 -0.01517,-0.0084 -0.03726,0.03463 -0.04908,0.09768 -0.02986,0.159129 -0.09207,0.269401 -0.23453,0.416276 -0.06723,0.06927 -0.122132,0.145072 -0.122132,0.16855 0,0.02341 -0.01254,0.04275 -0.02735,0.04275 -0.03165,0 -0.06294,0.11333 -0.08359,0.301644 -0.01708,0.155939 0.05278,0.286382 0.153492,0.286382 0.03654,0 0.08264,0.02603 0.102582,0.05792 0.01995,0.03189 0.242848,0.04945 0.28637,0.202227 0.153476,0.538743 -0.06762,0.430502 -0.210486,0.457378 -0.02024,0.0038 -0.05708,-0.0332 -0.083,-0.05923 -0.02603,-0.02603 -0.05577,-0.03881 -0.06592,-0.02866 -0.0096,0.0096 -0.03559,-0.0047 -0.05625,-0.03272 -0.02556,-0.03499 -0.0984,-0.05577 -0.228224,-0.0652 l -0.190643,-0.01373 -0.149204,0.158102 c -0.08204,0.08706 -0.143208,0.164132 -0.135841,0.171488 0.0072,0.0072 -0.01565,0.02902 -0.05111,0.04789 -0.03547,0.01899 -0.06532,0.05147 -0.06652,0.07213 -0.0011,0.02066 -0.06019,0.07989 -0.131518,0.131577 -0.07177,0.05207 -0.134085,0.124771 -0.13959,0.162937 -0.0047,0.03785 -0.02304,0.06079 -0.03905,0.05088 -0.016,-0.0096 -0.03762,0.02472 -0.04801,0.07691 -0.0096,0.05219 -0.0381,0.09494 -0.06162,0.09494 -0.02341,0 -0.04252,0.01301 -0.04252,0.02878 0,0.01588 -0.02579,0.03702 -0.05732,0.04705 -0.0603,0.01923 -0.221203,0.285785 -0.221203,0.366693 0,0.02603 -0.05326,0.08957 -0.118465,0.141191 -0.06521,0.05159 -0.156477,0.148678 -0.202943,0.215708 -0.06353,0.09172 -0.118824,0.131519 -0.223245,0.160753 -0.08789,0.0246 -0.163844,0.07213 -0.207134,0.129487 -0.184959,0.24523 -0.434392,0.434488 -0.537201,0.407606 -0.05828,-0.01528 -0.201785,0.0744 -0.389705,0.243514 -0.05207,0.04683 -0.120376,0.08514 -0.151891,0.08514 -0.03152,0 -0.05732,0.01494 -0.05732,0.03294 0,0.01814 -0.02579,0.02484 -0.05756,0.01479 -0.0332,-0.0096 -0.07404,0.0014 -0.09673,0.02875 -0.02161,0.02589 -0.05649,0.04718 -0.07762,0.04718 -0.02114,0 -0.07798,0.03106 -0.126263,0.06916 -0.05051,0.03978 -0.07762,0.04955 -0.06377,0.02317 0.01313,-0.02519 0.0036,-0.02136 -0.0203,0.0084 -0.02448,0.02987 -0.0498,0.05269 -0.05649,0.05088 -0.006,-0.0014 -0.05075,-0.01849 -0.09816,-0.03727 z"
       id="path1" /><path
       style="display:inline;fill:#534a43;stroke-width:0.283402;fill-opacity:1"
       d="m 84.232189,58.132767 c -0.159287,-0.01362 -0.304819,-0.04 -0.323404,-0.05852 -0.01849,-0.01851 -0.0529,-0.03367 -0.07631,-0.03367 -0.02331,0 -0.0633,-0.02078 -0.08885,-0.04633 -0.02554,-0.02556 -0.03748,-0.04645 -0.02666,-0.04645 0.01075,0 -0.01256,-0.04478 -0.05088,-0.09936 -0.04683,-0.06568 -0.067,-0.131232 -0.0596,-0.193438 0.0063,-0.05183 0.0134,-0.115957 0.01598,-0.14279 0.0021,-0.02687 0.0425,-0.112853 0.08837,-0.191205 0.04585,-0.07834 0.08347,-0.151473 0.08347,-0.162423 0,-0.01075 0.01968,-0.03965 0.04362,-0.06353 0.02415,-0.024 0.0485,-0.05828 0.05457,-0.07607 0.01075,-0.03439 0.207875,0.01827 0.215,0.05756 0.0049,0.0246 0.02624,0.309478 0.02938,0.381823 0.0014,0.02878 0.06567,0.115719 0.14341,0.193437 0.117274,0.117272 0.160893,0.141275 0.256825,0.141275 0.06518,0 0.14771,-0.02496 0.189339,-0.0572 0.04062,-0.03153 0.0947,-0.05971 0.120261,-0.0627 0.02554,-0.0024 0.116074,-0.0135 0.201161,-0.02329 0.08515,-0.0096 0.179122,-0.03941 0.208915,-0.0658 0.02987,-0.02651 0.05423,-0.03977 0.05423,-0.0295 0,0.0096 0.04229,-0.02007 0.09386,-0.06724 0.06232,-0.05696 0.0873,-0.10306 0.07428,-0.137107 -0.01396,-0.03619 0.0035,-0.06007 0.05813,-0.08085 0.04285,-0.01636 0.0861,-0.05565 0.09614,-0.08742 0.02387,-0.07547 0.212355,-0.257435 0.276303,-0.266809 0.0573,-0.0084 0.298657,-0.203409 0.298657,-0.241265 0,-0.02794 0.115718,-0.170294 0.181781,-0.223531 0.02331,-0.01875 0.09303,-0.08252 0.154744,-0.141477 0.06176,-0.05899 0.123772,-0.103897 0.13775,-0.09984 0.0141,0.0036 0.01675,-0.0072 0.0063,-0.0246 -0.01075,-0.01755 0.0021,-0.04049 0.02987,-0.05088 0.04515,-0.01731 0.147975,-0.200053 0.154479,-0.274571 0.0014,-0.01708 0.01494,-0.05051 0.02987,-0.0744 0.01996,-0.03189 0.01549,-0.03738 -0.01633,-0.02078 -0.02387,0.01254 -0.01075,-0.0047 0.0275,-0.04 0.03894,-0.03439 0.07033,-0.07034 0.06965,-0.07977 -0.0049,-0.06282 0.0014,-0.08682 0.01829,-0.06974 0.01075,0.01075 0.06016,-0.03212 0.109625,-0.09542 0.04955,-0.06329 0.110345,-0.139603 0.135092,-0.169589 0.02484,-0.02998 0.04515,-0.07523 0.04515,-0.100552 0,-0.02532 0.01291,-0.04598 0.02854,-0.04598 0.01577,0 0.07272,-0.03714 0.12657,-0.0824 0.07488,-0.06305 0.103777,-0.07297 0.122766,-0.04228 0.01682,0.02711 0.06176,-0.03332 0.13863,-0.186582 0.0626,-0.124771 0.141205,-0.265233 0.17469,-0.312273 0.03343,-0.04705 0.07655,-0.131386 0.09566,-0.187466 0.01919,-0.05601 0.0663,-0.140176 0.105088,-0.186905 0.03866,-0.04682 0.07918,-0.112852 0.09004,-0.146995 0.01075,-0.03415 0.02987,-0.0621 0.04236,-0.0621 0.01256,0 0.04118,-0.05231 0.06414,-0.116077 0.02282,-0.06377 0.08132,-0.161791 0.130003,-0.217703 0.04857,-0.05589 0.08849,-0.111659 0.08849,-0.123768 2.1e-5,-0.01254 0.03489,-0.06257 0.07738,-0.112136 0.08204,-0.0953 0.09721,-0.157217 0.04634,-0.188624 -0.0171,-0.0096 -0.03092,-0.0461 -0.03092,-0.0793 0,-0.0873 -0.106764,-0.07607 -0.181473,0.01899 -0.05185,0.06592 -0.09852,0.08288 -0.280791,0.102463 -0.120254,0.01278 -0.218602,0.01075 -0.218602,-0.0024 0,-0.01421 -0.05562,-0.02198 -0.123764,-0.01731 -0.06804,0.0047 -0.123765,0.02042 -0.123765,0.03499 -2.8e-5,0.01457 -0.0201,0.01875 -0.04452,0.0096 -0.0245,-0.0084 -0.04885,-0.0036 -0.05423,0.01075 -0.01075,0.03201 -0.50924,0.09446 -0.569203,0.07129 -0.02129,-0.0084 -0.122382,0.0084 -0.224387,0.03714 -0.152064,0.04263 -0.205453,0.0455 -0.295984,0.01553 -0.06079,-0.02006 -0.126814,-0.02639 -0.146809,-0.01409 -0.02066,0.01278 -0.02805,0.0084 -0.01731,-0.0084 0.01075,-0.01863 -0.03559,-0.03177 -0.118942,-0.03296 -0.07583,-0.0011 -0.145797,0.0096 -0.155379,0.02603 -0.0096,0.0154 -0.0499,0.02806 -0.08968,0.02806 -0.03978,0 -0.08025,0.0209 -0.09005,0.04633 -0.0096,0.02556 -0.05353,0.04645 -0.09732,0.04645 -0.04362,0 -0.110226,0.01935 -0.147975,0.04287 -0.07822,0.04908 -0.467268,0.127781 -0.570954,0.1156 -0.03797,-0.0047 -0.08682,0.0024 -0.108314,0.01648 -0.06483,0.0406 -0.181564,0.0467 -0.223961,0.01075 -0.03476,-0.02878 -0.230249,-0.03845 -0.48064,-0.02365 -0.0425,0.0024 -0.09578,0.02257 -0.11823,0.04467 -0.02827,0.02771 -0.05793,0.03093 -0.09625,0.0096 -0.03894,-0.02078 -0.07297,-0.01648 -0.113805,0.01457 -0.04467,0.03392 -0.114999,0.03977 -0.297569,0.02532 -0.131518,-0.0096 -0.256867,-0.006 -0.278536,0.0084 -0.0217,0.0154 -0.241353,0.02496 -0.488171,0.02102 -0.643291,-0.0096 -0.715495,-0.006 -0.813361,0.03571 -0.03036,0.01313 -0.09446,0.01612 -0.142489,0.006 -0.0485,-0.0096 -0.103302,-0.0012 -0.12315,0.01827 -0.04201,0.04203 -0.507223,0.0572 -0.726125,0.02365 -0.109269,-0.01672 -0.160585,-0.01075 -0.191216,0.01911 -0.02303,0.02305 -0.05506,0.04192 -0.07117,0.04192 -0.01612,0 -0.0455,0.01946 -0.06518,0.04311 -0.03448,0.04168 -0.234974,0.09852 -0.294839,0.08383 -0.03259,-0.0072 -0.302775,0.08933 -0.326817,0.117749 -0.04439,0.05254 -0.152811,0.08491 -0.263058,0.07846 -0.170614,-0.0096 -0.296975,-0.04586 -0.276505,-0.07906 0.0096,-0.01516 -0.0021,-0.02759 -0.02624,-0.02759 -0.0485,0 -0.12514,-0.144403 -0.099,-0.186654 0.0084,-0.01505 0.03748,-0.01935 0.06267,-0.0096 0.02519,0.0096 0.06637,5.73e-4 0.09136,-0.0203 0.02505,-0.02078 0.06672,-0.02986 0.09243,-0.01995 0.02582,0.0096 0.04683,0.0047 0.04683,-0.01075 0,-0.01636 0.05185,-0.05111 0.114999,-0.07762 0.0633,-0.02651 0.175276,-0.112733 0.248911,-0.191837 0.124267,-0.133393 0.143815,-0.143233 0.271823,-0.136605 0.08502,0.0047 0.137946,-0.006 0.137946,-0.02734 0,-0.03977 0.128203,-0.0084 0.15861,0.03917 0.01256,0.01875 0.02736,0.0172 0.04048,-0.0036 0.01075,-0.01875 0.08299,-0.03427 0.15861,-0.03427 0.0756,0 0.137444,-0.0135 0.137444,-0.02998 0,-0.01636 0.02129,-0.02185 0.04704,-0.01254 0.02582,0.0096 0.08502,0.0024 0.131532,-0.0154 0.04648,-0.01839 0.151199,-0.0406 0.23265,-0.04944 0.08156,-0.0084 0.171982,-0.02759 0.201168,-0.04168 0.07738,-0.03726 0.320222,-0.0252 0.402434,0.02006 0.07738,0.04252 0.269688,0.02496 0.336909,-0.03081 0.02254,-0.01863 0.04118,-0.02197 0.04159,-0.0072 2.66e-4,0.01481 0.01361,0.006 0.02987,-0.01946 0.02952,-0.0467 0.181125,-0.05505 1.245246,-0.06938 0.216843,-0.0024 0.304987,-0.0154 0.316244,-0.04478 0.0084,-0.02245 0.04111,-0.04072 0.07225,-0.04072 0.03127,0 0.07046,-0.01374 0.08729,-0.03057 0.02017,-0.02007 0.09625,-0.01899 0.222852,0.0036 0.105689,0.01851 0.209682,0.02723 0.230947,0.01911 0.02129,-0.0084 0.05255,-0.01803 0.06965,-0.02185 0.0171,-0.0036 0.0589,-0.02245 0.09279,-0.04156 0.03406,-0.01899 0.0732,-0.03117 0.08717,-0.02723 0.01375,0.0036 0.08193,-0.0072 0.15108,-0.02675 0.06923,-0.01875 0.303473,-0.03678 0.520532,-0.04025 0.28472,-0.0047 0.409189,-0.01839 0.446799,-0.04968 0.03699,-0.03069 0.170363,-0.0467 0.460101,-0.05481 0.22438,-0.006 0.512436,-0.01481 0.640095,-0.01875 0.241227,-0.0072 0.42441,-0.0824 0.380652,-0.15539 -0.01563,-0.02615 -0.0096,-0.0264 0.02338,-5.62e-4 0.04788,0.03726 0.179415,0.03666 0.396627,-0.0024 0.09625,-0.0172 0.142196,-0.01302 0.159036,0.01421 0.01459,0.02341 0.03999,0.02818 0.06581,0.01254 0.02317,-0.01445 0.06999,-0.02699 0.10414,-0.02806 0.03392,-0.0011 0.0898,-0.01577 0.123764,-0.03272 0.06853,-0.03427 0.138518,-0.03762 0.185696,-0.0084 0.06476,0.03941 0.287972,0.06079 0.307304,0.0295 0.01075,-0.01743 0.03908,-0.02436 0.06267,-0.01528 0.0238,0.0084 0.06853,-0.0084 0.09995,-0.04 0.03964,-0.03941 0.113094,-0.05935 0.242247,-0.06556 0.101983,-0.0047 0.267656,-0.02197 0.368174,-0.03774 0.117749,-0.01863 0.232413,-0.01755 0.322455,0.0024 0.07691,0.0172 0.182618,0.02161 0.235058,0.0096 0.05241,-0.01254 0.137129,-0.02293 0.18818,-0.02448 0.06309,-0.0024 0.0898,-0.01696 0.08336,-0.04681 -0.0072,-0.03355 2.86e-4,-0.0357 0.03238,-0.0084 0.02366,0.01958 0.184956,0.03798 0.371182,0.04228 0.18116,0.0036 0.322483,0.01887 0.314025,0.03248 -0.0084,0.01362 -5.58e-4,0.02484 0.01745,0.02484 0.01801,0 0.03273,-0.01397 0.03273,-0.03093 0,-0.01708 0.02087,-0.03093 0.04648,-0.03093 0.02554,0 0.04634,-0.01397 0.04634,-0.03093 0,-0.04622 0.05995,-0.03738 0.114525,0.0172 0.03748,0.0375 0.08491,0.04371 0.214658,0.02735 0.0953,-0.01075 0.18296,-0.0072 0.204958,0.0084 0.067,0.05243 0.181557,0.067 0.266156,0.03392 0.04501,-0.01755 0.179785,-0.03571 0.299564,-0.0406 0.183826,-0.0072 0.230445,0.0012 0.299313,0.0572 0.06351,0.05123 0.07786,0.08467 0.06497,0.150924 -0.0084,0.04681 -0.03036,0.08515 -0.04704,0.08515 -0.04655,0 -0.21202,0.188314 -0.192793,0.219436 0.0084,0.01505 -0.0021,0.02018 -0.02533,0.01075 -0.02317,-0.0084 -0.06616,0.0096 -0.09542,0.04263 -0.04704,0.05195 -0.07033,0.05493 -0.199228,0.02627 -0.147158,-0.03284 -0.300297,-0.03594 -0.64117,-0.0129 -0.107001,0.0072 -0.194593,-8.37e-4 -0.206688,-0.01923 -0.01075,-0.01743 -0.136899,-0.03451 -0.278544,-0.03797 -0.141658,-0.0036 -0.334138,-0.01266 -0.427753,-0.0203 -0.09363,-0.0072 -0.187741,-2.87e-4 -0.20918,0.01624 -0.07093,0.05529 -0.841459,0.02568 -1.011145,-0.03869 -0.0536,-0.02042 -0.07953,-0.01982 -0.07953,0.0012 0,0.01755 -0.01256,0.02436 -0.0275,0.01505 -0.01507,-0.0084 -0.04467,0.0036 -0.06567,0.02914 -0.02101,0.02532 -0.02854,0.0461 -0.01696,0.0461 0.01075,0 -0.0096,0.0443 -0.04871,0.0984 -0.03845,0.05422 -0.0499,0.08622 -0.02533,0.07153 0.03692,-0.02233 0.03796,-0.01863 0.0063,0.02042 -0.02101,0.02603 -0.02924,0.05672 -0.01801,0.06783 0.0328,0.03284 -0.05478,0.181364 -0.179373,0.304283 -0.06686,0.0658 -0.111537,0.137501 -0.106045,0.170211 0.0096,0.06532 -0.06602,0.164812 -0.127121,0.164812 -0.03762,0 -0.0462,0.01827 -0.03943,0.08347 0.0014,0.01254 -0.02554,0.032 -0.05974,0.04467 -0.03413,0.01266 -0.09159,0.08992 -0.12768,0.171751 -0.03608,0.08192 -0.105089,0.190618 -0.153076,0.241683 -0.04802,0.051 -0.09589,0.129356 -0.106282,0.173983 -0.0096,0.04467 -0.07595,0.132653 -0.145679,0.195599 -0.128105,0.115718 -0.256532,0.345817 -0.223165,0.399807 0.0096,0.01624 0.0035,0.02078 -0.01277,0.0096 -0.05932,-0.03678 -0.458168,0.389263 -0.430901,0.460282 0.0096,0.02616 -0.0014,0.04442 -0.02834,0.04442 -0.02498,0 -0.04536,0.01755 -0.04536,0.03905 0,0.0215 -0.02617,0.0553 -0.05806,0.07523 -0.03203,0.01995 -0.09446,0.10915 -0.138791,0.198226 -0.07619,0.152954 -0.227185,0.319199 -0.383786,0.422617 -0.03845,0.02544 -0.09219,0.09303 -0.119417,0.150267 -0.02708,0.0572 -0.09685,0.133357 -0.154772,0.169183 -0.185137,0.114524 -0.283813,0.238017 -0.338151,0.423536 -0.02854,0.09781 -0.05472,0.194716 -0.05792,0.215495 -0.0084,0.05935 -0.03727,0.07583 -0.147472,0.08742 -0.262618,0.02735 -0.390242,0.07953 -0.545056,0.223018 -0.02296,0.02138 -0.05813,0.03977 -0.07822,0.04096 -0.0201,0.0012 -0.0573,0.0084 -0.08288,0.01565 -0.02554,0.0072 -0.08956,0.0215 -0.142189,0.03141 -0.05269,0.0096 -0.115362,0.04598 -0.139285,0.08013 -0.140117,0.199647 -0.223047,0.220796 -0.704497,0.179548 z"
       id="path4" /></g></svg>
