<?xml version="1.0" encoding="UTF-8" standalone="no"?>
<!-- Created with Inkscape (http://www.inkscape.org/) -->

<svg
   width="4.5440102mm"
   height="6.2323833mm"
   viewBox="0 0 4.5440102 6.2323833"
   version="1.1"
   id="svg5"
   inkscape:version="1.4.2 (ebf0e940d0, 2025-05-08)"
   sodipodi:docname="12_16.svg"
   xmlns:inkscape="http://www.inkscape.org/namespaces/inkscape"
   xmlns:sodipodi="http://sodipodi.sourceforge.net/DTD/sodipodi-0.dtd"
   xmlns="http://www.w3.org/2000/svg"
   xmlns:svg="http://www.w3.org/2000/svg">
  <sodipodi:namedview
     id="namedview7"
     pagecolor="#ffffff"
     bordercolor="#000000"
     borderopacity="1"
     inkscape:showpageshadow="0"
     inkscape:pageopacity="1"
     inkscape:pagecheckerboard="0"
     inkscape:deskcolor="#ffffff"
     inkscape:document-units="mm"
     showgrid="false"
     inkscape:zoom="4.605751"
     inkscape:cx="-52.108765"
     inkscape:cy="12.267272"
     inkscape:window-width="1920"
     inkscape:window-height="1017"
     inkscape:window-x="0"
     inkscape:window-y="1026"
     inkscape:window-maximized="1"
     inkscape:current-layer="layer1">
    <inkscape:grid
       type="xygrid"
       id="grid132"
       originx="-104.26454"
       originy="-256.28218"
       spacingy="1"
       spacingx="1"
       units="mm"
       visible="false" />
  </sodipodi:namedview>
  <defs
     id="defs2" />
  <g
     inkscape:label="Ebene 1"
     inkscape:groupmode="layer"
     id="layer1"
     transform="translate(-104.26453,-32.950217)">
    <path
       id="use136"
       d="m 105.07252,35.278778 c 0,0.321151 -0.19113,0.616188 -0.49506,0.616188 a 0.09612313,0.09612313 0 0 0 -0.0956,0.09557 c 0,0.04334 0.035,0.08668 0.0956,0.08668 0.30393,0 0.59896,-0.08668 0.90289,-0.08668 0.30393,0 0.59896,0.08668 0.90289,0.08668 0.0611,0 0.0867,-0.04334 0.0867,-0.08668 0,-0.04334 -0.0261,-0.09557 -0.0867,-0.09557 -0.30393,0 -0.5034,-0.295037 -0.5034,-0.616744 z m 0.40783,-2.214166 c -0.18224,0 -0.36449,-0.182245 -0.40838,-0.08668 l -0.79844,1.545194 c -0.009,0.01722 -0.009,0.04334 -0.009,0.06112 0,0.06056 0.0611,0.103902 0.11335,0.103902 0.0344,0 0.0695,-0.01722 0.095,-0.06112 l 0.40839,-0.781208 c 0.008,-0.03445 0.0344,-0.04334 0.0695,-0.04334 0.0517,0 0.12113,0.04334 0.12113,0.138906 v 1.33739 h 0.80787 v -2.179717 c 0,-0.07834 -0.0522,-0.130572 -0.0956,-0.130572 -0.0522,0 -0.17391,0.09557 -0.30393,0.09557 m 0,0"
       style="stroke-width:0.555625" />
    <path
       id="use137"
       d="m 107.89732,36.077211 c 0.62452,0 0.91122,-0.57285 0.91122,-0.720646 0,-0.05223 -0.0522,-0.08668 -0.0956,-0.08668 -0.12168,0 -0.0522,0.260588 -0.36449,0.260588 -0.3556,0 -0.52118,-0.38227 -1.05902,-0.38227 h -0.0439 c 0.60786,-0.303927 1.44129,-0.390605 1.44129,-1.276271 0,-0.555625 -0.57285,-0.894556 -1.1807,-0.894556 -0.51229,0 -0.97234,0.338931 -0.97234,0.825103 0,0.216694 0.16502,0.38227 0.38227,0.38227 a 0.37226877,0.37226877 0 0 0 0.37338,-0.38227 c 0,-0.147241 -0.19114,-0.225584 -0.19114,-0.37338 0,-0.19058 0.20836,-0.277813 0.40783,-0.277813 0.30393,0 0.38227,0.37338 0.38227,0.720646 0,1.077357 -1.44129,1.163479 -1.44129,2.118598 0,0.05223 0.0522,0.08668 0.0956,0.08668 0.0433,0 0.0778,-0.02611 0.0867,-0.07779 a 0.37004627,0.37004627 0 0 1 0.37338,-0.348377 c 0.32115,0 0.33004,0.425609 0.89456,0.425609 m 0,0"
       style="stroke-width:0.555625" />
    <path
       id="use136-3"
       d="m 107.71418,37.585177 c 0.33893,0 0.33893,0.312818 0.33893,0.711757 0,0.399495 0,0.70342 -0.33893,0.70342 -0.26059,0 -0.29559,-0.191135 -0.29559,-0.460057 v -0.494506 c 0,-0.269478 0.035,-0.460614 0.29559,-0.460614 m -0.29559,-0.103901 c 0,-0.156686 -0.008,-0.321707 -0.008,-0.468947 0,-0.416719 0.0611,-0.755651 0.43394,-0.755651 0.18224,0 0.37338,0.06112 0.37338,0.22614 0,0.130016 -0.21669,0.138906 -0.21669,0.268923 0,0.200024 0.15557,0.36449 0.3556,0.36449 a 0.3667125,0.3667125 0 0 0 0.36449,-0.36449 c 0,-0.407829 -0.42506,-0.668417 -0.87678,-0.668417 -0.74621,0 -1.22404,0.74676 -1.22404,1.545193 0,0.781765 0.38227,1.554083 1.09402,1.554083 0.64231,0 1.09403,-0.277812 1.09403,-0.885666 0,-0.607298 -0.45172,-0.894557 -1.09458,-0.894557 a 0.57785,0.57785 0 0 0 -0.29448,0.0789 m 0,0"
       style="stroke-width:0.555625" />
    <path
       id="path1"
       d="m 105.07252,38.384162 c 0,0.321151 -0.19113,0.616188 -0.49506,0.616188 a 0.09612313,0.09612313 0 0 0 -0.0956,0.09557 c 0,0.04334 0.035,0.08668 0.0956,0.08668 0.30393,0 0.59896,-0.08668 0.90289,-0.08668 0.30393,0 0.59896,0.08668 0.90289,0.08668 0.0611,0 0.0867,-0.04334 0.0867,-0.08668 0,-0.04334 -0.0261,-0.09557 -0.0867,-0.09557 -0.30393,0 -0.5034,-0.295037 -0.5034,-0.616744 z m 0.40783,-2.214166 c -0.18224,0 -0.36449,-0.182245 -0.40838,-0.08668 l -0.79844,1.545194 c -0.009,0.01722 -0.009,0.04334 -0.009,0.06112 0,0.06056 0.0611,0.103902 0.11335,0.103902 0.0344,0 0.0695,-0.01722 0.095,-0.06112 l 0.40839,-0.781208 c 0.008,-0.03445 0.0344,-0.04334 0.0695,-0.04334 0.0517,0 0.12113,0.04334 0.12113,0.138906 v 1.33739 h 0.80787 v -2.179717 c 0,-0.07834 -0.0522,-0.130572 -0.0956,-0.130572 -0.0522,0 -0.17391,0.09557 -0.30393,0.09557 m 0,0"
       style="stroke-width:0.555625" />
  </g>
</svg>
